<?xml version="1.0" encoding="UTF-8"?><svg id="Capa_2" xmlns="http://www.w3.org/2000/svg" viewBox="0 0 160 153"><defs><style>.cls-1{fill:none;}.cls-2{fill:#fec80f;}</style></defs><g id="Capa_1-2"><path class="cls-1" d="m0,0h160v153H0V0Z"/><path class="cls-2" d="m127.99,57.63l8.33-17.53,18.33-7.97-18.33-7.97-8.33-17.53-8.33,17.53-18.33,7.97,18.33,7.97,8.33,17.53Zm-50,3.19l-16.67-35.06-16.67,35.06-36.67,15.94,36.67,15.94,16.67,35.06,16.67-35.06,36.67-15.94-36.67-15.94Zm50,35.06l-8.33,17.53-18.33,7.97,18.33,7.97,8.33,17.53,8.33-17.53,18.33-7.97-18.33-7.97-8.33-17.53Z"/></g></svg>