<?xml version="1.0" encoding="UTF-8"?><svg id="Capa_2" xmlns="http://www.w3.org/2000/svg" viewBox="0 0 160 168"><defs><style>.cls-1{fill:none;}.cls-2{fill:#2d2c79;}</style></defs><g id="Capa_1-2"><rect class="cls-1" width="160" height="168"/><rect class="cls-2" x="6.67" y="77" width="26.67" height="77"/><path class="cls-2" d="m104.98,25.48c4.33-5.32,11.07-8.75,18-8.75,12.33,0,22,10.15,22,23.1,0,15.89-19.4,34.3-40,53.9-20.6-19.67-40-38.08-40-53.9,0-12.95,9.67-23.1,22-23.1,6.93,0,13.67,3.43,18,8.75Z"/><path class="cls-2" d="m133.33,119h-46.67l-13.93-5.11,2.2-6.58,11.73,4.69h18.8c4.33,0,7.87-3.71,7.87-8.26h0c0-3.43-2.07-6.51-5.13-7.77l-48.4-18.97h-13.13v63.14l46.67,13.86,53.4-21h0c-.07-7.7-6-14-13.4-14Z"/></g></svg>